# xmcd
#
# Track frame offsets:
#	150
#	12177
#	26537
#	42755
#	56527
#	68307
#	82922
#	99380
#	115432
#	126465
#	140345
#	156840
#	169877
#	185037
#	202032
#	216317
#	231550
#	243325
#
# Disc length: 3415 seconds
#
# Revision: 2
# Processed by: cddbd v1.4PL0 Copyright (c) Steve Scherf et al.
# Submitted via: CDmax 1.8
#
DISCID=fc0d5512
DTITLE=Country And Western - The very best of country Line Dancing Disc 1
DYEAR=1998
DGENRE=Country
TTITLE0=Hillibilly Rock
TTITLE1=Chattahoochee
TTITLE2=He thinks he'll keep her
TTITLE3=Boot scootin'boogie
TTITLE4=Holding heaven
TTITLE5=No doubt about it
TTITLE6=I feel lucky
TTITLE7=God blessed Texas
TTITLE8=If the good die young
TTITLE9=Honky tonk blues
TTITLE10=Beer and bones
TTITLE11=Indian outlaw
TTITLE12=Can't keep a good man down
TTITLE13=Ain't going down
TTITLE14=Rock my world
TTITLE15=Achy breaky heart
TTITLE16=I'll take Texas
TTITLE17=If Bubba can dance
EXTD=
EXTT0=
EXTT1=
EXTT2=
EXTT3=
EXTT4=
EXTT5=
EXTT6=
EXTT7=
EXTT8=
EXTT9=
EXTT10=
EXTT11=
EXTT12=
EXTT13=
EXTT14=
EXTT15=
EXTT16=
EXTT17=
PLAYORDER=
